# xmcd
#
# Track frame offsets: 
#        150
#        17824
#        32898
#        53227
#        69688
#        86309
#        105553
#        122674
#        139975
#        156633
#        172622
#        197332
#        217868
#        237047
#        251767
#        268784
#        287296
#        303626
#        322079
#        339968
#
# Disc length: 4733 seconds
#
# Revision: 0
# Processed by: cddbd v1.5.2PL0 Copyright (c) Steve Scherf et al.
# Submitted via: ExactAudioCopyFreeDBPlugin 1.0
#
DISCID=19127b14
DTITLE=Стас Михайлов - Grand Collection - Часть 2
DYEAR=2010
DGENRE=Pop
TTITLE0=Нежданная любовь
TTITLE1=На крыльях любви
TTITLE2=Мы разные
TTITLE3=За женщин всех
TTITLE4=Ты...
TTITLE5=Гори звезда моя
TTITLE6=Ушла
TTITLE7=Летит по небу
TTITLE8=Танго
TTITLE9=Ветер
TTITLE10=Небеса
TTITLE11=Засыпает лес
TTITLE12=Быть хочу счастливым
TTITLE13=Звездой на небо
TTITLE14=На волю
TTITLE15=По тонкому льду
TTITLE16=За воротами времени
TTITLE17=Человек
TTITLE18=Жди
TTITLE19=Позывные на любовь
EXTD=
EXTT0=
EXTT1=
EXTT2=
EXTT3=
EXTT4=
EXTT5=
EXTT6=
EXTT7=
EXTT8=
EXTT9=
EXTT10=
EXTT11=
EXTT12=
EXTT13=
EXTT14=
EXTT15=
EXTT16=
EXTT17=
EXTT18=
EXTT19=
PLAYORDER=
